<svg width="100" height="100" viewBox="0 0 100 100" fill="none" xmlns="http://www.w3.org/2000/svg">
<path d="M3.9917 50C3.9917 56.0419 5.18174 62.0246 7.49387 67.6066C9.80601 73.1886 13.195 78.2605 17.4672 82.5328C21.7395 86.805 26.8114 90.194 32.3934 92.5061C37.9754 94.8183 43.9581 96.0083 50 96.0083C56.0419 96.0083 62.0247 94.8183 67.6067 92.5061C73.1886 90.194 78.2606 86.805 82.5328 82.5328C86.8051 78.2605 90.194 73.1886 92.5062 67.6066C94.8183 62.0246 96.0084 56.0419 96.0084 50C96.0084 43.9581 94.8183 37.9753 92.5062 32.3933C90.194 26.8114 86.8051 21.7394 82.5328 17.4672C78.2606 13.1949 73.1886 9.80595 67.6067 7.49381C62.0247 5.18168 56.0419 3.99164 50 3.99164C43.9581 3.99164 37.9754 5.18168 32.3934 7.49381C26.8114 9.80595 21.7395 13.1949 17.4672 17.4672C13.195 21.7394 9.80601 26.8114 7.49387 32.3933C5.18174 37.9753 3.9917 43.9581 3.9917 50Z" stroke="black" stroke-width="3"/>
<path d="M42.4166 23.3208C42.4166 25.332 43.2156 27.2609 44.6377 28.683C46.0599 30.1052 47.9887 30.9042 50 30.9042C52.0112 30.9042 53.94 30.1052 55.3622 28.683C56.7843 27.2609 57.5833 25.332 57.5833 23.3208C57.5833 21.3096 56.7843 19.3807 55.3622 17.9586C53.94 16.5364 52.0112 15.7375 50 15.7375C47.9887 15.7375 46.0599 16.5364 44.6377 17.9586C43.2156 19.3807 42.4166 21.3096 42.4166 23.3208Z" stroke="black" stroke-width="3"/>
<path d="M60.5871 61.6563V49.8188C65.3425 49.5529 70.4429 49.3534 75.2246 48.3321C77.8933 47.7621 79.1925 44.8979 78.2342 42.3429C77.2763 39.7878 74.4229 38.5098 71.7517 39.0679C64.7313 40.5346 56.7308 40.2255 50 40.2255C43.2688 40.2255 35.2685 40.5347 28.2479 39.068C25.5767 38.5099 22.7236 39.7879 21.7654 42.3429C20.8072 44.8984 22.1064 47.7625 24.7751 48.3321C29.5566 49.3534 34.6564 49.5529 39.4114 49.8188V61.6563C39.4114 61.9829 39.4392 62.3034 39.4925 62.6146L36.1125 78.4259C35.4704 81.4296 37.7605 84.2613 40.8322 84.2613C43.1108 84.2613 45.0792 82.6671 45.5529 80.4384L48.3454 67.3029H51.6538L54.4463 80.4384C54.92 82.6671 56.8883 84.2613 59.1671 84.2613C62.2388 84.2613 64.5288 81.4296 63.8867 78.4259L60.5063 62.6138C60.5596 62.3025 60.5871 61.9825 60.5871 61.6563Z" stroke="black" stroke-width="3" stroke-linecap="round" stroke-linejoin="round"/>
</svg>
