<svg width="100" height="100" viewBox="0 0 100 100" fill="none" xmlns="http://www.w3.org/2000/svg">
<path fill-rule="evenodd" clip-rule="evenodd" d="M51.9318 63.7769L96.4255 19.2827L88.218 11.0753L47.8279 51.4656L36.4554 40.0931L28.2479 48.3007L43.724 63.7769C45.9905 66.0434 49.6653 66.0434 51.9318 63.7769ZM42.2619 11.31C52.0111 11.31 60.918 14.9158 67.7222 20.8667L48.0666 40.5222L41.8338 34.2895C38.8119 31.2676 33.9124 31.2676 30.8904 34.2895L22.683 42.4971C19.6611 45.5189 19.6611 50.4186 22.683 53.4404L38.4911 69.2485C43.7793 74.5367 52.3535 74.5367 57.6417 69.2485L80.7612 46.1294C80.8877 47.4023 80.9524 48.6938 80.9524 50.0004C80.9524 71.3688 63.6299 88.6909 42.2619 88.6909C20.8937 88.6909 3.57141 71.3688 3.57141 50.0004C3.57141 28.6323 20.8937 11.31 42.2619 11.31Z" fill="black"/>
</svg>
