<svg width="100" height="100" viewBox="0 0 100 100" fill="none" xmlns="http://www.w3.org/2000/svg">
<path fill-rule="evenodd" clip-rule="evenodd" d="M51.4805 3.41645C50.5402 2.9883 49.4606 2.9883 48.5204 3.41645L29.7918 11.9446L49.987 21.1406L70.1956 11.9385L51.4805 3.41645ZM26.4229 40.0696V18.2591L46.4155 27.3628V51.4713L28.5143 43.3198C27.2405 42.7398 26.4229 41.4692 26.4229 40.0696ZM53.5584 88.015V64.1557L72.5064 72.7836V96.8928L54.6054 88.7414C54.2085 88.5607 53.8558 88.3128 53.5584 88.015ZM79.6493 96.905V72.7836L99.6693 63.6679V85.4907C99.6693 86.8907 98.8514 88.1614 97.5778 88.7414L79.6493 96.905ZM46.4155 64.1553V88.0407C46.1237 88.3271 45.78 88.5657 45.3945 88.7414L27.4664 96.905V72.7836L46.4155 64.1553ZM20.3235 72.7836V96.8928L2.42226 88.7414C1.14845 88.1614 0.330872 86.8907 0.330872 85.4907V63.6801L20.3235 72.7836ZM53.5584 51.4835V27.3628L73.5778 18.2468V40.0696C73.5778 41.4692 72.7607 42.7398 71.4864 43.3198L53.5584 51.4835ZM74.6114 48.8377C75.5514 48.4096 76.6314 48.4096 77.5714 48.8377L96.2864 57.3596L76.0778 66.5616L55.8831 57.3657L74.6114 48.8377ZM22.4283 48.8377C23.3686 48.4096 24.4482 48.4096 25.3885 48.8377L44.1034 57.3596L23.895 66.5616L3.7 57.3657L22.4283 48.8377Z" fill="black"/>
</svg>
