<svg width="100" height="100" viewBox="0 0 100 100" fill="none" xmlns="http://www.w3.org/2000/svg">
<g clip-path="url(#clip0_414_240)">
<path fill-rule="evenodd" clip-rule="evenodd" d="M8.33334 16.6667C8.33334 7.55712 15.8905 0 25 0H84.375C88.3338 0 91.6667 3.33288 91.6667 7.29167V63.5417C91.6667 67.1475 88.9013 70.2342 85.4167 70.7558V82.2917H87.5C89.8013 82.2917 91.6667 84.1571 91.6667 86.4583C91.6667 88.7596 89.8013 90.625 87.5 90.625H50.5208V97.9167C50.5208 98.6996 50.0817 99.4167 49.3842 99.7725C48.6867 100.128 47.8488 100.063 47.2146 99.6033L38.0208 92.9379L28.827 99.6033C28.1931 100.063 27.3549 100.128 26.6574 99.7725C25.9599 99.4167 25.5208 98.6996 25.5208 97.9167V90.625H22.3958C14.8037 90.625 8.6168 84.6083 8.3428 77.0833H8.33334V16.6667ZM16.6722 76.8171C16.8055 79.8633 19.3171 82.2917 22.3958 82.2917H25.5208V78.125C25.5208 76.9746 26.4536 76.0417 27.6042 76.0417H48.4375C49.5879 76.0417 50.5208 76.9746 50.5208 78.125V82.2917H77.0834V70.8333H22.9167C19.5541 70.8333 16.8116 73.4887 16.6722 76.8171ZM28.6458 53.125C26.057 53.125 23.9583 51.0262 23.9583 48.4375C23.9583 45.8487 26.057 43.75 28.6458 43.75C31.2347 43.75 33.3333 45.8487 33.3333 48.4375C33.3333 51.0262 31.2347 53.125 28.6458 53.125ZM28.6458 38.5417C26.057 38.5417 23.9583 36.443 23.9583 33.8542C23.9583 31.2653 26.057 29.1667 28.6458 29.1667C31.2347 29.1667 33.3333 31.2653 33.3333 33.8542C33.3333 36.443 31.2347 38.5417 28.6458 38.5417ZM28.6458 23.9583C26.057 23.9583 23.9583 21.8597 23.9583 19.2708C23.9583 16.682 26.057 14.5833 28.6458 14.5833C31.2347 14.5833 33.3333 16.682 33.3333 19.2708C33.3333 21.8597 31.2347 23.9583 28.6458 23.9583Z" fill="black"/>
</g>
<defs>
<clipPath id="clip0_414_240">
<rect width="100" height="100" fill="white"/>
</clipPath>
</defs>
</svg>
